<svg xmlns="http://www.w3.org/2000/svg" width="512" height="512" viewBox="0 0 512 512" version="1.1"><path d="" stroke="none" fill="#f84c4c" fill-rule="evenodd"/><path d="M 230 1.560 C 156.933 13.047, 99.199 68.409, 84.980 140.621 C 82.261 154.430, 81.281 177.598, 82.930 189.084 C 90.244 240.025, 134.828 331.940, 208.196 447.336 C 230.086 481.765, 249.059 509.961, 251.054 511.029 C 253.388 512.278, 258.615 512.276, 260.952 511.026 C 264.374 509.195, 305.381 446.009, 333.007 400 C 388.092 308.263, 421.164 236.294, 428.531 192.131 C 430.791 178.580, 430.145 156.190, 427.045 140.621 C 413.252 71.362, 360.184 17.871, 290.500 2.987 C 277.079 0.120, 244.106 -0.657, 230 1.560 M 234.293 53.488 C 209.418 57.999, 186.613 70.324, 168.639 88.969 C 128.523 130.583, 122.789 192.443, 154.546 241.022 C 161.415 251.531, 178.528 268.500, 189.304 275.487 C 199.930 282.378, 212.944 288.157, 225.893 291.736 C 234.847 294.211, 236.893 294.391, 256 294.391 C 275.148 294.391, 277.139 294.214, 286.191 291.714 C 335.899 277.983, 370.691 238.030, 377.070 187.352 C 378.483 176.124, 377.852 161.018, 375.490 149.500 C 365.450 100.558, 325.932 61.974, 277.129 53.463 C 266.866 51.674, 244.224 51.686, 234.293 53.488 M 231.388 100.954 C 230.227 101.438, 228.314 103.057, 227.138 104.552 C 225.135 107.098, 225 108.399, 225 125.135 L 225 143 206.636 143 L 188.273 143 185.636 145.636 L 183 148.273 183 173.500 L 183 198.727 185.636 201.364 L 188.273 204 206.636 204 L 225 204 225 221.099 C 225 239.817, 225.880 243.713, 230.595 245.861 C 234.027 247.425, 277.973 247.425, 281.405 245.861 C 286.120 243.713, 287 239.817, 287 221.099 L 287 204 305.364 204 L 323.727 204 326.364 201.364 L 329 198.727 329 173.500 L 329 148.273 326.364 145.636 L 323.727 143 305.364 143 L 287 143 287 125.016 L 287 107.032 284.084 103.766 L 281.167 100.500 257.334 100.287 C 244.225 100.170, 232.550 100.470, 231.388 100.954" stroke="none" fill="#f44c4c" fill-rule="evenodd"/></svg>