<svg xmlns="http://www.w3.org/2000/svg" width="512" height="512" viewBox="0 0 512 512" version="1.1"><path d="M 199.052 139.477 L 179.500 158.953 179.178 173.977 L 178.856 189 155.501 189 L 132.145 189 130.073 191.635 C 128.011 194.255, 128 194.752, 128 282.680 L 128 371.091 130.455 373.545 L 132.909 376 256 376 L 379.091 376 381.545 373.545 L 384 371.091 384 282.680 C 384 194.752, 383.989 194.255, 381.927 191.635 L 379.855 189 356.499 189 L 333.144 189 332.822 173.977 L 332.500 158.953 312.948 139.477 L 293.397 120 256 120 L 218.603 120 199.052 139.477 M 210.238 151.262 L 195 166.523 195 263.262 L 195 360 208.500 360 L 222 360 222 322.923 L 222 285.846 224.923 282.923 L 227.846 280 256 280 L 284.154 280 287.077 282.923 L 290 285.846 290 322.923 L 290 360 303.500 360 L 317 360 317 263.238 L 317 166.476 301.738 151.238 L 286.477 136 255.976 136 L 225.476 136 210.238 151.262 M 250.923 156.923 C 248.002 159.844, 248 159.856, 248 172.423 L 248 185 236.047 185 C 229.293 185, 223.016 185.491, 221.615 186.130 C 216.642 188.395, 215.878 196.401, 220.337 199.523 C 221.929 200.639, 225.573 201, 235.223 201 L 248 201 248 214.045 C 248 226.563, 248.099 227.190, 250.455 229.545 C 252.002 231.093, 254.052 232, 256 232 C 257.948 232, 259.998 231.093, 261.545 229.545 C 263.901 227.190, 264 226.563, 264 214.045 L 264 201 276.777 201 C 286.427 201, 290.071 200.639, 291.663 199.523 C 296.122 196.401, 295.358 188.395, 290.385 186.130 C 288.984 185.491, 282.707 185, 275.953 185 L 264 185 264 172.423 C 264 159.856, 263.998 159.844, 261.077 156.923 C 259.469 155.315, 257.185 154, 256 154 C 254.815 154, 252.531 155.315, 250.923 156.923 M 144 282.500 L 144 360 161.500 360 L 179 360 179 282.500 L 179 205 161.500 205 L 144 205 144 282.500 M 333 282.500 L 333 360 350.500 360 L 368 360 368 282.500 L 368 205 350.500 205 L 333 205 333 282.500 M 238 328 L 238 360 256 360 L 274 360 274 328 L 274 296 256 296 L 238 296 238 328" stroke="none" fill="#f9fbfb" fill-rule="evenodd"/><path d="M 229.500 25.062 C 209.274 27.821, 195.235 31.168, 177.744 37.401 C 144.537 49.235, 117.420 66.475, 91.947 91.947 C 47.515 136.379, 24 192.969, 24 255.463 C 24 284.852, 27.659 306.660, 37.103 333.554 C 48.691 366.553, 66.319 394.334, 91.982 420.042 C 136.397 464.534, 193.027 488, 255.988 488 C 284.873 488, 306.814 484.286, 333.693 474.848 C 366.612 463.289, 394.532 445.573, 420.053 420.053 C 445.525 394.580, 462.765 367.463, 474.599 334.256 C 484.215 307.273, 488 285.168, 488 256 C 488 226.832, 484.215 204.727, 474.599 177.744 C 462.762 144.527, 445.510 117.394, 420.053 91.958 C 382.435 54.371, 338.092 32.608, 284.564 25.460 C 272.774 23.886, 239.867 23.648, 229.500 25.062 M 199.052 139.477 L 179.500 158.953 179.178 173.977 L 178.856 189 155.501 189 L 132.145 189 130.073 191.635 C 128.011 194.255, 128 194.752, 128 282.680 L 128 371.091 130.455 373.545 L 132.909 376 256 376 L 379.091 376 381.545 373.545 L 384 371.091 384 282.680 C 384 194.752, 383.989 194.255, 381.927 191.635 L 379.855 189 356.499 189 L 333.144 189 332.822 173.977 L 332.500 158.953 312.948 139.477 L 293.397 120 256 120 L 218.603 120 199.052 139.477 M 210.238 151.262 L 195 166.523 195 263.262 L 195 360 208.500 360 L 222 360 222 322.923 L 222 285.846 224.923 282.923 L 227.846 280 256 280 L 284.154 280 287.077 282.923 L 290 285.846 290 322.923 L 290 360 303.500 360 L 317 360 317 263.238 L 317 166.476 301.738 151.238 L 286.477 136 255.976 136 L 225.476 136 210.238 151.262 M 250.923 156.923 C 248.002 159.844, 248 159.856, 248 172.423 L 248 185 236.047 185 C 229.293 185, 223.016 185.491, 221.615 186.130 C 216.642 188.395, 215.878 196.401, 220.337 199.523 C 221.929 200.639, 225.573 201, 235.223 201 L 248 201 248 214.045 C 248 226.563, 248.099 227.190, 250.455 229.545 C 252.002 231.093, 254.052 232, 256 232 C 257.948 232, 259.998 231.093, 261.545 229.545 C 263.901 227.190, 264 226.563, 264 214.045 L 264 201 276.777 201 C 286.427 201, 290.071 200.639, 291.663 199.523 C 296.122 196.401, 295.358 188.395, 290.385 186.130 C 288.984 185.491, 282.707 185, 275.953 185 L 264 185 264 172.423 C 264 159.856, 263.998 159.844, 261.077 156.923 C 259.469 155.315, 257.185 154, 256 154 C 254.815 154, 252.531 155.315, 250.923 156.923 M 144 282.500 L 144 360 161.500 360 L 179 360 179 282.500 L 179 205 161.500 205 L 144 205 144 282.500 M 333 282.500 L 333 360 350.500 360 L 368 360 368 282.500 L 368 205 350.500 205 L 333 205 333 282.500 M 238 328 L 238 360 256 360 L 274 360 274 328 L 274 296 256 296 L 238 296 238 328" stroke="none" fill="#34dcb4" fill-rule="evenodd"/></svg>